<svg xmlns="http://www.w3.org/2000/svg" width="512" height="512"  viewBox="0 0 512 512" data-bbox="29.92856848547956 50.472416929510665 451.90232573819435 351.7529814780041">
    <rect x="0" y="0" width="512" height="512" fill="transparent"/>
    <g transform="matrix(1, 0, 0, 1, -10.999996185302734, -9.768240928649902)" fill="#ffc107">
        <g transform="matrix(2.550992488861084, 0, 0, 2.550992488861084, 135.7596435546875, 57.61586380004883)" fill="#ffc107">
            <path d="M48.062,71.138c-0.006,0.078-0.058,0.146-0.132,0.173c-0.494,0.179-0.995,0.539-1.41,1.016  c-0.449,0.516-0.753,1.107-0.857,1.669c-0.015,0.079-0.075,0.142-0.152,0.159c-0.015,0.004-0.03,0.005-0.045,0.005  c-0.063,0-0.124-0.029-0.162-0.082c-0.5-0.683-0.371-1.742,0.306-2.518c0.435-0.499,1.038-0.797,1.615-0.797  c0.268,0,0.515,0.062,0.734,0.184C48.028,70.984,48.068,71.059,48.062,71.138z M89.946,57.404c0.021,1.472-0.358,2.714-1.044,3.41  c-0.396,0.401-0.879,0.614-1.396,0.614l0,0c-0.18,0-0.36-0.026-0.538-0.079c-0.666-0.195-1.203-0.717-1.61-1.405  c-0.794,1-1.727,1.576-2.604,1.576l0,0c-0.536,0-1.029-0.218-1.391-0.612c-1.136-1.237-0.658-3.719,0.4-5.53  c0.565-0.968,1.251-1.689,1.959-2.09c-0.828-0.696-2.228-1.158-3.71-1.158c-0.021,0-0.041,0.002-0.062,0.002  c0.004,0.006,0.008,0.012,0.011,0.018c0.038,0.054,0.076,0.107,0.109,0.162c0.041,0.063,0.078,0.128,0.112,0.192  c0.026,0.05,0.05,0.099,0.072,0.148c0.033,0.074,0.064,0.15,0.09,0.226c0.013,0.036,0.023,0.072,0.033,0.108  c0.026,0.092,0.05,0.184,0.064,0.276c0.003,0.017,0.004,0.035,0.007,0.053c0.016,0.109,0.025,0.22,0.025,0.331  c0,0.705-0.302,1.36-0.908,1.968c-1.207,5.827-3.546,11.057-6.854,15.396c4.269,1.149,9.815,3.672,10.492,9.08  c0.479,3.825-6.94,3.982-7.25,1.196c-0.401-3.618-3.305-6.068-5.635-7.476c-0.469,0.491-0.947,0.973-1.445,1.434  c-1.509,1.397-3.11,2.604-4.784,3.631v3.146c0,0.679-0.183,1.332-0.52,1.95c0.4,0.392,0.812,0.658,1.279,0.788  c0.354,0.099,1.269,0.353,1.814-0.716c0.433-1.426,1.912-2.274,3.374-1.905c1.503,0.379,2.413,1.905,2.034,3.408l-0.077,0.306  l-0.063,0.162c-0.774,1.985-3.038,4.456-6.46,4.456c-0.665,0-1.374-0.093-2.125-0.302c-1.796-0.499-3.114-1.501-4.183-2.691  c-0.071,0.03-0.14,0.062-0.213,0.093c0.905,1.635,2.643,4.308,5.055,5.944c0.607,0.413,1.292,1.136,1.038,1.77  c-0.434,1.083-1.686,0.71-2.957,1.563c-1.214,0.814-2.513,1.57-3.264,1.553c-1.765-0.039-3.491-2.432-4.32-5.833  c-0.403-1.654-0.698-2.828-0.895-3.602c-1.281,0.179-2.638,0.276-4.049,0.276c-1.862,0-3.63-0.168-5.253-0.472  c-0.157,0.74-0.433,2.082-0.827,4.142c-0.651,3.402-2.249,5.795-4.012,5.834c-0.75,0.017-2.089-0.739-3.346-1.553  c-1.316-0.854-2.549-0.48-3.04-1.563c-0.288-0.634,0.359-1.356,0.945-1.77c2.734-1.924,4.478-5.318,5.127-6.755  c-2.563-1.295-4.125-3.082-4.125-5.084l0-3.336c-1.57-0.989-3.074-2.143-4.496-3.462c-0.783-0.726-1.525-1.497-2.234-2.3  c-0.283,0.236-0.56,0.453-0.815,0.652c-1.563,1.217-1.734,1.515-1.734,2.164s0.171,0.946,1.734,2.164  c1.562,1.217,3.924,3.057,3.924,6.647c0,1.567-1.274,2.842-2.841,2.842s-2.841-1.274-2.841-2.842c0-0.648-0.17-0.946-1.733-2.164  c-1.227-0.955-2.941-2.298-3.624-4.567c-0.292,0.478-0.544,0.991-0.732,1.555c-0.886,2.658-8.116,0.945-6.847-2.694  c1.492-4.279,5.864-5.898,9.835-6.452c0.473-0.438,0.949-0.811,1.368-1.137c0.375-0.292,0.667-0.529,0.899-0.733  c-1.005-1.608-1.892-3.313-2.653-5.107c-1.146-1.167-2.171-2.77-2.171-5.135c0-0.41,0.034-0.806,0.095-1.189  c-0.104-0.437-0.205-0.873-0.296-1.315c-0.074-0.074-0.143-0.149-0.208-0.225c-0.003-0.005-0.007-0.009-0.01-0.014  c-0.062-0.071-0.119-0.144-0.171-0.217c-0.004-0.005-0.008-0.011-0.012-0.016c-0.163-0.229-0.287-0.464-0.371-0.704  c-0.006-0.019-0.012-0.037-0.018-0.057c-0.019-0.059-0.036-0.118-0.05-0.177c-0.005-0.024-0.011-0.049-0.016-0.072  c-0.012-0.058-0.021-0.115-0.029-0.174c-0.003-0.022-0.007-0.046-0.009-0.069c-0.007-0.08-0.013-0.16-0.013-0.241  c0-0.086,0.006-0.171,0.015-0.255c0.003-0.017,0.005-0.034,0.007-0.052c0.009-0.073,0.022-0.146,0.038-0.218  c0.002-0.01,0.004-0.02,0.007-0.029c0.125-0.526,0.43-1.021,0.921-1.488c0.002-0.002,0.005-0.005,0.008-0.007  c0.002-0.003,0.006-0.005,0.009-0.008c0.184-0.173,0.394-0.343,0.629-0.508c0.272-0.951,0.655-1.845,1.139-2.657  c-3.713-0.827-6.836-3.297-8.33-6.764c-0.544-1.263-0.715-2.486-0.697-3.527c-1.084-0.901-1.666-2.791-1.687-4.498  c-0.019-1.469,0.364-2.71,1.05-3.405c0.535-0.542,1.249-0.737,1.938-0.534c0.666,0.197,1.202,0.721,1.608,1.412  c0.795-0.996,1.726-1.57,2.603-1.57c0.538,0,1.033,0.219,1.395,0.616c1.131,1.24,0.647,3.721-0.416,5.529  c-0.568,0.966-1.256,1.686-1.964,2.084c0.829,0.702,2.234,1.169,3.725,1.169c0.899,0,1.758-0.171,2.487-0.496  c1.362-0.606,1.934-2.115,2.01-3.223c0.043-0.624,0.528-1.353,1.754-1.353c0.165,0,0.303,0.013,0.382,0.022  c0.205,0.009,1.002,0.044,2.022,0.091c-1.036-2.893-0.904-5.709,0.559-7.841c1.533-2.234,4.249-3.418,7.674-3.353L32.939,4.437  c-0.375-1.463,0.503-2.949,1.956-3.322c1.454-0.374,2.939,0.506,3.312,1.958l5.116,20.792c1.68,0.611,3.348,1.465,4.927,2.548  c3.772,2.587,5.966,5.767,6.321,9.072c0.125-0.009,0.249-0.022,0.374-0.029c-0.152-0.886,0.001-1.81,0.458-2.604  c0.51-0.881,1.338-1.518,2.298-1.793c0.189-0.625,0.537-1.189,1-1.646l7.834-16.963c0.647-1.365,2.273-1.944,3.629-1.302  c1.355,0.643,1.936,2.269,1.294,3.624l-6.132,12.604c0.904,0.071,1.751,0.453,2.397,1.077c0.956-0.223,1.979-0.072,2.828,0.417  c0.882,0.51,1.519,1.338,1.794,2.299c0.937,0.284,1.743,0.915,2.24,1.774c0.51,0.882,0.646,1.917,0.405,2.888  c0.669,0.715,1.053,1.664,1.053,2.658c0,1.018-0.398,1.984-1.093,2.703c0.095,0.407,0.119,0.825,0.081,1.237  c0.479-0.054,0.96-0.084,1.442-0.084c4.863,0,9.206,2.764,11.064,7.042c0.549,1.263,0.723,2.485,0.707,3.525  C89.334,53.81,89.92,55.697,89.946,57.404z M18.597,79.119c-0.072-0.25-0.333-0.396-0.584-0.323  c-0.52,0.148-1.128,0.146-1.715-0.005c-0.809-0.211-1.502-0.689-1.852-1.28c-0.086-0.145-0.236-0.228-0.393-0.231  c-0.086-0.003-0.174,0.02-0.254,0.066c-0.224,0.132-0.298,0.422-0.166,0.646c0.481,0.812,1.366,1.437,2.428,1.712  c0.757,0.197,1.522,0.196,2.212-0.001C18.524,79.631,18.669,79.37,18.597,79.119z M38.604,95.913  c-1.078-0.833-2.405-1.343-3.838-1.474c-0.204-0.018-0.381,0.131-0.394,0.335c-0.014,0.203,0.141,0.383,0.346,0.402  c1.29,0.118,2.48,0.573,3.444,1.317c0.075,0.06,0.166,0.085,0.252,0.079c0.103-0.006,0.199-0.054,0.266-0.14  C38.802,96.272,38.768,96.04,38.604,95.913z M59.491,96.088c0.07,0.086,0.17,0.134,0.272,0.14c0.087,0.006,0.177-0.02,0.249-0.079  c0.924-0.743,2.09-1.198,3.373-1.317c0.204-0.019,0.35-0.198,0.325-0.402s-0.209-0.352-0.411-0.335  c-1.427,0.132-2.727,0.641-3.761,1.475C59.382,95.694,59.36,95.928,59.491,96.088z M77.219,81.895  c0.633,0.339,1.381,0.5,2.161,0.466c1.095-0.046,2.089-0.471,2.729-1.164c0.177-0.192,0.164-0.491-0.026-0.667  c-0.068-0.063-0.149-0.103-0.233-0.118c-0.154-0.029-0.319,0.021-0.433,0.144c-0.466,0.505-1.241,0.827-2.076,0.862  c-0.604,0.025-1.2-0.101-1.677-0.355c-0.229-0.123-0.516-0.035-0.638,0.194C76.902,81.486,76.99,81.771,77.219,81.895z   M74.113,44.606c-0.115,0.133-0.237,0.26-0.367,0.375c0.415,0.334,0.814,0.693,1.203,1.065l-0.24-1.554  C74.511,44.525,74.312,44.563,74.113,44.606z M65.022,29.366c-0.258,0-0.508,0.056-0.738,0.156l-2.074,4.263  c2.072-0.949,4.073-0.473,5.489,0.536c2.315,1.65,3.177,4.647,1.962,6.824c-0.068,0.123-0.145,0.239-0.225,0.353  c0.851,0.91,1.198,1.328,1.28,1.502c0.445,0.231,0.88,0.483,1.305,0.75c0.32-0.163,0.593-0.415,0.777-0.734  c0.304-0.526,0.333-1.173,0.078-1.73c-0.202-0.442-0.058-0.966,0.344-1.242c0.514-0.354,0.819-0.935,0.819-1.555  c0-0.607-0.298-1.183-0.798-1.538c-0.396-0.282-0.533-0.808-0.323-1.248c0.268-0.563,0.243-1.22-0.067-1.756  c-0.305-0.526-0.85-0.875-1.46-0.933c-0.484-0.045-0.866-0.434-0.904-0.919c-0.05-0.621-0.399-1.177-0.937-1.487  c-0.522-0.301-1.184-0.329-1.73-0.078c-0.441,0.203-0.967,0.059-1.243-0.343C66.225,29.672,65.643,29.366,65.022,29.366z   M67.972,40.04c0.68-1.411-0.19-3.199-1.437-4.086c-1.46-1.042-3.183-0.852-4.731,0.477c0.907,0.316,1.793,0.707,2.653,1.171  C65.707,38.276,66.894,39.084,67.972,40.04z M63.516,39.344c-1.076-0.581-2.198-1.029-3.354-1.348l-0.893,1.836  c1.041,0.259,2.053,0.639,3.023,1.137c0.842-0.004,1.686,0.047,2.523,0.162c0.589,0.081,1.169,0.189,1.739,0.324  C65.613,40.637,64.597,39.927,63.516,39.344z M52.112,48.463c0.188,0.111,0.374,0.226,0.56,0.343l16.979-34.901  c0.164-0.348,0.012-0.776-0.345-0.945c-0.357-0.169-0.785-0.017-0.954,0.341L52.112,48.463z M49.931,57.023  c0.421,0.57,0.815,1.163,1.176,1.78c0.763-0.007,1.519-0.021,2.27-0.04c-0.724-1.393-1.587-2.688-2.572-3.878  C50.556,55.603,50.264,56.316,49.931,57.023z M51.17,44.958c0.176-0.23,0.389-0.437,0.636-0.613l1.198-2.593  c-0.043,0.011-0.086,0.018-0.129,0.029c-0.971,0.252-1.908,0.627-2.803,1.114C50.52,43.503,50.888,44.194,51.17,44.958z   M53.671,54.665c0.181-0.583,0.493-1.119,0.921-1.561c-0.031-0.133-0.054-0.267-0.07-0.4c-0.867-0.794-1.787-1.505-2.752-2.129  c-0.07,0.72-0.19,1.449-0.356,2.184C52.204,53.327,52.959,53.964,53.671,54.665z M54.926,50.438  c0.027-0.054,0.053-0.109,0.083-0.161c0.462-0.801,1.196-1.412,2.068-1.721h0.001c0.075-0.027,0.151-0.051,0.228-0.073  c0.056-0.182,0.127-0.356,0.208-0.526c-0.787,0.341-1.549,0.762-2.279,1.269c-0.221,0.152-0.459,0.265-0.705,0.351l-0.191,0.393  C54.535,50.121,54.731,50.277,54.926,50.438z M51.874,37.924c-1.617,0.419-3.159,1.09-4.601,1.991l0.197,0.803  c0.185,0.089,0.368,0.184,0.545,0.29c0.215,0.129,0.418,0.271,0.616,0.421c1.183-0.701,2.438-1.226,3.747-1.564  c0.542-0.141,1.092-0.244,1.645-0.318l0.974-2.107C53.943,37.496,52.898,37.657,51.874,37.924z M46.673,37.479l0.105,0.427  c0.199-0.114,0.397-0.228,0.598-0.335C47.144,37.533,46.909,37.505,46.673,37.479z M48.273,35.712  c0.032-1.379-0.624-2.709-1.805-3.52c-0.388-0.266-0.806-0.454-1.236-0.572l0.94,3.822C46.877,35.492,47.578,35.581,48.273,35.712z   M43.914,26.262l0.795,3.234c1.006,0.094,2.001,0.432,2.893,1.042c1.876,1.288,2.858,3.461,2.647,5.66  c0.074,0.023,0.148,0.048,0.223,0.071c0.299-0.095,0.6-0.184,0.905-0.263c0.402-0.104,0.808-0.189,1.214-0.265  c-0.279-2.728-2.186-5.42-5.474-7.675C46.08,27.354,45.003,26.75,43.914,26.262z M44.532,40.012c0.242,0.008,0.48,0.027,0.715,0.057  L36.264,3.562c-0.096-0.373-0.486-0.604-0.87-0.506c-0.382,0.098-0.613,0.49-0.516,0.872L44.532,40.012z M31.379,47.571  c0.539,0.123,1.077-0.214,1.2-0.754c0.124-0.541-0.214-1.078-0.754-1.201c-0.538-0.123-1.092-0.186-1.646-0.186  c-3.889,0-7.224,3.053-7.928,7.26c-0.018,0.104-0.017,0.206-0.002,0.306c0.431-0.393,1.229-0.989,2.322-1.262  c0.909-2.551,3.105-4.298,5.607-4.298C30.583,47.436,30.987,47.481,31.379,47.571z M30.938,49.501  c-0.248-0.057-0.504-0.085-0.759-0.085c-1.427,0-2.713,0.902-3.444,2.289c0.604,0.128,1.165,0.363,1.664,0.682  c0.425-0.659,1.092-1.141,2.131-1.363c0.215-0.487,0.458-0.977,0.726-1.468C31.149,49.543,31.044,49.525,30.938,49.501z   M33.903,44.699c0.201-0.273,0.378-0.526,0.453-0.605c1.814-1.925,4.048-3.337,6.458-4.085c0.506-0.157,1.021-0.281,1.54-0.378  l-0.52-1.941c-0.544,0.107-1.083,0.24-1.614,0.405c-2.74,0.85-5.44,2.303-7.323,4.625c-0.361,0.444-0.584,0.746-0.709,0.951  c0.026,0.005,0.053,0.01,0.079,0.016C32.918,43.834,33.487,44.19,33.903,44.699z M39.991,36.099  c0.439-0.126,0.883-0.234,1.331-0.327l-0.659-2.463C40.104,34.142,39.875,35.124,39.991,36.099z M34.838,38.502  c1.023-0.684,2.103-1.263,3.225-1.729c-0.311-1.61,0.028-3.265,0.971-4.639c0.294-0.429,0.638-0.802,1.012-1.13l-1.655-6.187  c-0.143-0.01-0.287-0.022-0.429-0.027c-2.79-0.088-4.976,0.792-6.135,2.481C29.898,30.083,31.144,34.625,34.838,38.502z   M16.516,34.645c0.006,0.448-0.03,0.87-0.096,1.267c0.285-0.208,0.668-0.593,1.051-1.244c0.854-1.454,0.874-2.782,0.695-3.115  c-0.227,0.058-0.825,0.433-1.417,1.441c-0.122,0.208-0.225,0.411-0.314,0.611C16.482,33.952,16.511,34.302,16.516,34.645z   M14.511,34.669c-0.021-1.686-0.692-2.833-1.02-3.026c-0.16,0.165-0.481,0.804-0.466,1.967c0.021,1.687,0.693,2.834,1.02,3.026  C14.208,36.474,14.526,35.85,14.511,34.669z M23.082,46.621c0.307-0.331,0.633-0.64,0.977-0.925l-0.427-2.826  c-0.083-0.547,0.294-1.058,0.841-1.141c0.549-0.084,1.059,0.294,1.142,0.841l0.288,1.91c1.193-0.606,2.509-0.963,3.889-1.021  c0.168-0.322,0.452-0.725,0.886-1.235l-1.964-1.467c-0.443-0.332-0.534-0.959-0.203-1.403s0.959-0.535,1.403-0.203l2.145,1.602  c0.376-0.365,0.764-0.714,1.164-1.046c-1.096-1.181-1.996-2.423-2.68-3.678c-1.134-0.053-2.247-0.104-3.08-0.14  c-0.021-0.001-0.043-0.003-0.065-0.005c-0.299,1.968-1.492,3.656-3.137,4.389c-0.982,0.437-2.124,0.669-3.302,0.669  c-2.541,0-4.816-1.037-5.864-2.591c-0.121,0.079-0.246,0.143-0.377,0.191c0.026,0.687,0.165,1.485,0.527,2.326  c0.448,1.04,1.079,1.968,1.843,2.766l1.086-1.396c0.34-0.436,0.969-0.516,1.407-0.175c0.437,0.34,0.515,0.97,0.176,1.407  l-1.137,1.461C19.919,45.821,21.446,46.405,23.082,46.621z M29.571,66.928c0-2.692-1.708-4.023-3.215-5.196  c-1.514-1.18-2.443-1.985-2.443-3.615c0-0.969,0.33-1.646,0.914-2.284c0.294-0.25,0.543-0.405,0.875-0.396  c0.637,0.019,1.137,0.505,1.137,1.108c0,0.005-0.001,0.01-0.001,0.015c0.618,0.158,1.277,0.309,1.967,0.453  c0.023-0.154,0.039-0.311,0.039-0.468c0-1.695-1.355-3.062-3.084-3.112c-0.029-0.001-0.059-0.002-0.087-0.001  c-1.445,0.032-2.367,1.104-2.377,1.115l0.001,0.003c-0.795,0.887-1.388,1.98-1.388,3.567c0,2.692,1.708,4.023,3.215,5.196  c1.515,1.18,2.443,1.985,2.443,3.615s-0.928,2.436-2.443,3.615c-1.507,1.174-3.215,2.504-3.215,5.197  c0,2.692,1.708,4.022,3.215,5.196c1.515,1.18,2.443,1.985,2.443,3.615c0,0.554,0.449,1.003,1.002,1.003s1.002-0.449,1.002-1.003  c0-2.692-1.708-4.022-3.215-5.196c-1.514-1.18-2.443-1.985-2.443-3.615c0-1.631,0.929-2.437,2.443-3.615  C27.863,70.951,29.571,69.62,29.571,66.928z M59.968,82.002c-1.768-2.886-3.772-6.155-8.512-7.329  c-0.537-0.133-1.081,0.194-1.214,0.732c-0.133,0.537,0.195,1.081,0.732,1.214c3.941,0.976,5.64,3.748,7.283,6.43  c1.392,2.271,2.831,4.619,5.573,5.382c0.594,0.165,1.145,0.237,1.656,0.237c2.701,0,4.267-2.035,4.764-3.309  c0.2-0.514-0.053-1.089-0.564-1.292c-0.512-0.204-1.094,0.047-1.301,0.558c-0.111,0.275-1.172,2.664-4.018,1.874  C62.386,85.948,61.265,84.119,59.968,82.002z M61.506,81.059c0.203,0.332,0.396,0.642,0.58,0.933v-1.992  c-0.315,0.159-0.632,0.311-0.951,0.457C61.261,80.661,61.386,80.863,61.506,81.059z M77.141,57.16  c-1.526,0.685-3.582,1.293-6.181,1.832c-2.023,0.42-4.286,0.771-6.719,1.051c-0.506-1.714-1.34-3.051-2.381-3.796  c0.244-0.406,0.649-0.83,1.324-1.161c0.498-0.243,1.098-0.038,1.342,0.458c0.244,0.497,0.039,1.098-0.458,1.342  c-0.217,0.106-0.487,0.286-0.549,0.538c-0.045,0.186,0.021,0.428,0.169,0.665c0.066-0.008,0.133-0.015,0.197-0.022  c0.19-0.021,0.38-0.043,0.567-0.065c0.107-0.014,0.214-0.026,0.321-0.039c0.945-0.117,1.862-0.246,2.747-0.386  c0.784-1.427-0.104-3.288-1.383-4.199c-1.678-1.196-3.701-0.77-5.411,1.143c-0.368,0.413-1.002,0.449-1.415,0.08  s-0.448-1.003-0.079-1.415c2.895-3.239,6.066-2.868,8.069-1.44c1.855,1.322,2.773,3.508,2.442,5.444  c0.271-0.052,0.544-0.104,0.809-0.159c0.264-0.055,0.517-0.11,0.765-0.166c0.061-0.013,0.121-0.027,0.181-0.04  c0.232-0.054,0.46-0.106,0.678-0.16c0.008-0.002,0.017-0.004,0.024-0.006c0.241-0.06,0.474-0.119,0.697-0.178  c0.025-0.007,0.05-0.014,0.074-0.021c0.215-0.058,0.424-0.115,0.624-0.173c0.003-0.001,0.006-0.002,0.009-0.003  c0.024-0.121,0.038-0.245,0.038-0.372c0-0.608-0.298-1.183-0.797-1.538c-0.397-0.282-0.534-0.809-0.324-1.248  c0.268-0.562,0.243-1.219-0.067-1.756c-0.305-0.526-0.85-0.875-1.46-0.934c-0.484-0.046-0.866-0.433-0.904-0.918  c-0.05-0.621-0.399-1.178-0.937-1.488c-0.527-0.304-1.174-0.333-1.729-0.078c-0.443,0.203-0.968,0.058-1.244-0.343  c-0.353-0.513-0.934-0.819-1.555-0.819c-0.607,0-1.184,0.298-1.537,0.797c-0.283,0.397-0.81,0.533-1.249,0.325  c-0.563-0.269-1.22-0.244-1.756,0.066c-0.526,0.305-0.875,0.85-0.933,1.459c-0.046,0.485-0.434,0.867-0.92,0.905  c-0.165,0.014-0.328,0.048-0.484,0.103v0.001c-0.422,0.149-0.778,0.445-1.002,0.833c-0.305,0.527-0.334,1.173-0.079,1.729  c0.203,0.443,0.059,0.968-0.343,1.243c-0.513,0.354-0.819,0.936-0.819,1.556c0,0.607,0.298,1.183,0.797,1.537  c0.131,0.093,0.23,0.215,0.302,0.349c-0.53,0.819-0.949,1.844-1.222,3.018c-1.85,0.073-3.742,0.111-5.664,0.111  c-0.98,0-1.953-0.011-2.917-0.03c-0.167-0.737-0.391-1.417-0.663-2.026c0.173,0.005,0.344,0.011,0.517,0.015  c0.159-0.241,0.317-0.486,0.471-0.744c1.834-3.058,2.796-6.374,2.711-9.336c-0.082-2.798-1.094-4.918-2.852-5.972  c-0.793-0.476-1.71-0.717-2.724-0.717c-0.023,0-0.357-0.009-0.768,0.045c-3.51,0.394-7.47,3.412-10.078,7.761  c-1.644,2.74-2.375,5.376-2.134,7.659c0.779,0.129,1.584,0.25,2.414,0.362c0.002,0,0.005,0,0.007,0  c-0.11-0.271-0.204-0.549-0.276-0.838c-0.4-1.597-0.154-3.254,0.693-4.665c1.106-1.847,3.133-2.994,5.29-2.994  c1.112,0,2.206,0.304,3.164,0.877c2.476,1.485,3.526,4.444,2.717,7.087c-0.506-0.669-1.097-1.167-1.749-1.449  c0.128-1.531-0.595-3.076-1.999-3.918c-0.646-0.388-1.384-0.593-2.133-0.593c-1.478,0-2.812,0.755-3.57,2.021  c-0.571,0.952-0.737,2.069-0.468,3.146c0.152,0.607,0.436,1.156,0.821,1.626c0.01,0.001,0.021,0.002,0.032,0.003  c0.448,0.048,0.901,0.094,1.359,0.136c0.043,0.004,0.086,0.008,0.13,0.013c0.287,0.026,0.579,0.05,0.87,0.075  c-0.296,0.579-0.545,1.233-0.738,1.95c-2.884-0.259-5.575-0.612-7.982-1.054c0,0.001-0.001,0.001-0.001,0.002  c-0.055-0.011-0.107-0.021-0.163-0.031c-0.111-0.021-0.221-0.042-0.33-0.063c-0.242-0.046-0.481-0.093-0.716-0.141  c-0.059-0.012-0.12-0.023-0.178-0.035l-0.002-0.002c-0.639-0.133-1.253-0.271-1.834-0.415c-0.363-0.09-0.698,0.594,0.222,1.372  c0.205,0.174,0.544,0.375,0.946,0.584c1.546,1.217,3.605,3.041,3.605,6.396c0,2.001-0.734,3.457-1.654,4.566  c3.965,4.507,9.012,7.633,14.592,8.866c-0.145,0.516-0.209,1.098-0.209,1.668c0,0.025,0.001,0.159,0.014,0.358  c-2.471-0.511-4.855-1.363-7.118-2.545v2.18c0,2.467,5.144,5.215,12.525,5.215c3.32,0,6.187-0.557,8.337-1.394  c-0.42-0.615-0.806-1.243-1.178-1.851c-0.589-0.961-1.149-1.872-1.784-2.68c0.029,0.235,0.046,0.479,0.046,0.716  c0,0.837-0.318,2.358-0.831,2.23l-3.866-1.571c-0.058-0.018-0.11-0.041-0.158-0.067c-0.047,0.026-0.1,0.05-0.158,0.067l-3.866,1.571  c-0.512,0.128-0.831-1.394-0.831-2.23c0-1.061,0.306-2.28,0.831-2.171l3.956,1.814c0.024,0.013,0.046,0.025,0.068,0.038  c0.022-0.013,0.043-0.025,0.068-0.038l3.557-1.632c-0.472-0.417-0.994-0.784-1.596-1.083c-0.224,0.062-0.463,0.097-0.719,0.097  h-0.771c-2.041,0-3.056-2.157-3.056-3.88s1.371-3.055,3.056-3.055h0.771c1.146,0,2.146,0.618,2.669,1.556  c2.758,1.213,4.549,3.154,5.889,5.048C68.092,75.093,74.502,67.266,77.141,57.16z M77.193,52.383  c-2.615-5.164-7.224-8.549-12.646-9.29c-1.676-0.229-3.367-0.192-5.029,0.111c-0.734,0.134-1.455,0.32-2.16,0.554l-1.315,2.703  c1.224-0.608,2.506-1.041,3.835-1.284c1.162-0.211,2.341-0.272,3.517-0.187c0.394-0.132,0.808-0.206,1.231-0.206  c1,0,1.948,0.386,2.662,1.058c0.025,0.009,0.051,0.018,0.075,0.028c0.943-0.21,1.942-0.067,2.792,0.423  c0.883,0.509,1.52,1.337,1.795,2.298c0.937,0.285,1.743,0.915,2.241,1.775c0.3,0.52,0.467,1.093,0.508,1.675  c0.249,0.403,0.487,0.815,0.706,1.247c0.154,0.306,0.443,0.497,0.759,0.54c0.195,0.027,0.399-0.003,0.588-0.099  C77.246,53.479,77.443,52.876,77.193,52.383z M84.448,56.409c-0.008-0.447,0.027-0.87,0.093-1.267  c-0.285,0.209-0.666,0.595-1.047,1.246c-0.853,1.458-0.867,2.786-0.687,3.118c0.226-0.058,0.822-0.434,1.412-1.445  c0.122-0.207,0.224-0.411,0.313-0.611C84.483,57.103,84.453,56.752,84.448,56.409z M86.235,52.511  c-0.028-0.688-0.169-1.486-0.534-2.327c-0.45-1.038-1.085-1.964-1.851-2.761l-1.082,1.398c-0.197,0.255-0.494,0.389-0.794,0.389  c-0.214,0-0.43-0.068-0.612-0.209c-0.438-0.339-0.518-0.968-0.179-1.406l1.133-1.465c-1.599-1.089-3.536-1.726-5.6-1.772  l0.592,3.848c0.027,0.175,0.003,0.345-0.055,0.5c0.368,0.51,0.716,1.041,1.042,1.592c0.554-0.112,1.129-0.171,1.716-0.171  c2.53,0,4.804,1.028,5.854,2.573C85.983,52.622,86.107,52.56,86.235,52.511z M87.941,57.434c-0.026-1.685-0.7-2.83-1.028-3.022  c-0.16,0.165-0.479,0.805-0.46,1.968c0.024,1.688,0.7,2.833,1.027,3.024C87.644,59.238,87.959,58.612,87.941,57.434z M51.199,67.375  c-1.067,0-1.933,0.465-1.933,1.037c0,0.573,0.866,1.038,1.933,1.038c1.068,0,1.934-0.465,1.934-1.038  C53.133,67.84,52.268,67.375,51.199,67.375z M63.268,64.004c0,1.627-0.276,3.122-0.737,4.312c-0.646-0.134-1.367-0.259-2.135-0.363  c-1.367-0.188-2.615-0.277-3.54-0.272c-0.328-1.068-0.52-2.326-0.52-3.676c0-3.867,1.552-7.002,3.466-7.002  S63.268,60.137,63.268,64.004z M61.265,63.475c0.018-0.52-0.145-0.951-0.361-0.963c-0.219-0.012-0.41,0.4-0.428,0.92  s0.144,0.951,0.361,0.963S61.246,63.994,61.265,63.475z M61.144,65.066c-0.03,0.868,0.24,1.589,0.604,1.608s0.684-0.668,0.713-1.536  c0.031-0.868-0.24-1.589-0.604-1.608S61.173,64.198,61.144,65.066z M45.21,67.68c-0.925-0.005-2.173,0.085-3.541,0.272  c-0.767,0.104-1.488,0.229-2.134,0.363c-0.461-1.189-0.738-2.685-0.738-4.312c0-3.867,1.551-7.002,3.465-7.002  c1.915,0,3.466,3.135,3.466,7.002C45.729,65.354,45.538,66.611,45.21,67.68z M43.727,63.475c0.018-0.52-0.144-0.951-0.361-0.963  s-0.41,0.4-0.428,0.92s0.144,0.951,0.362,0.963C43.517,64.406,43.708,63.994,43.727,63.475z M44.319,63.53  c-0.364-0.02-0.684,0.668-0.713,1.536c-0.03,0.868,0.24,1.589,0.603,1.608c0.364,0.02,0.684-0.668,0.714-1.536  S44.683,63.55,44.319,63.53z" transform="matrix(1, 0, 0, 1, 0, 0)" fill="#ffc107"/>
        </g>
    </g>
    <g transform="matrix(2.550992250442505, 0, 0, 2.550992250442505, 127.22314453125, 50.311126708984375)" fill="#141445">
        <path d="M48.062,71.138c-0.006,0.078-0.058,0.146-0.132,0.173c-0.494,0.179-0.995,0.539-1.41,1.016  c-0.449,0.516-0.753,1.107-0.857,1.669c-0.015,0.079-0.075,0.142-0.152,0.159c-0.015,0.004-0.03,0.005-0.045,0.005  c-0.063,0-0.124-0.029-0.162-0.082c-0.5-0.683-0.371-1.742,0.306-2.518c0.435-0.499,1.038-0.797,1.615-0.797  c0.268,0,0.515,0.062,0.734,0.184C48.028,70.984,48.068,71.059,48.062,71.138z M89.946,57.404c0.021,1.472-0.358,2.714-1.044,3.41  c-0.396,0.401-0.879,0.614-1.396,0.614l0,0c-0.18,0-0.36-0.026-0.538-0.079c-0.666-0.195-1.203-0.717-1.61-1.405  c-0.794,1-1.727,1.576-2.604,1.576l0,0c-0.536,0-1.029-0.218-1.391-0.612c-1.136-1.237-0.658-3.719,0.4-5.53  c0.565-0.968,1.251-1.689,1.959-2.09c-0.828-0.696-2.228-1.158-3.71-1.158c-0.021,0-0.041,0.002-0.062,0.002  c0.004,0.006,0.008,0.012,0.011,0.018c0.038,0.054,0.076,0.107,0.109,0.162c0.041,0.063,0.078,0.128,0.112,0.192  c0.026,0.05,0.05,0.099,0.072,0.148c0.033,0.074,0.064,0.15,0.09,0.226c0.013,0.036,0.023,0.072,0.033,0.108  c0.026,0.092,0.05,0.184,0.064,0.276c0.003,0.017,0.004,0.035,0.007,0.053c0.016,0.109,0.025,0.22,0.025,0.331  c0,0.705-0.302,1.36-0.908,1.968c-1.207,5.827-3.546,11.057-6.854,15.396c4.269,1.149,9.815,3.672,10.492,9.08  c0.479,3.825-6.94,3.982-7.25,1.196c-0.401-3.618-3.305-6.068-5.635-7.476c-0.469,0.491-0.947,0.973-1.445,1.434  c-1.509,1.397-3.11,2.604-4.784,3.631v3.146c0,0.679-0.183,1.332-0.52,1.95c0.4,0.392,0.812,0.658,1.279,0.788  c0.354,0.099,1.269,0.353,1.814-0.716c0.433-1.426,1.912-2.274,3.374-1.905c1.503,0.379,2.413,1.905,2.034,3.408l-0.077,0.306  l-0.063,0.162c-0.774,1.985-3.038,4.456-6.46,4.456c-0.665,0-1.374-0.093-2.125-0.302c-1.796-0.499-3.114-1.501-4.183-2.691  c-0.071,0.03-0.14,0.062-0.213,0.093c0.905,1.635,2.643,4.308,5.055,5.944c0.607,0.413,1.292,1.136,1.038,1.77  c-0.434,1.083-1.686,0.71-2.957,1.563c-1.214,0.814-2.513,1.57-3.264,1.553c-1.765-0.039-3.491-2.432-4.32-5.833  c-0.403-1.654-0.698-2.828-0.895-3.602c-1.281,0.179-2.638,0.276-4.049,0.276c-1.862,0-3.63-0.168-5.253-0.472  c-0.157,0.74-0.433,2.082-0.827,4.142c-0.651,3.402-2.249,5.795-4.012,5.834c-0.75,0.017-2.089-0.739-3.346-1.553  c-1.316-0.854-2.549-0.48-3.04-1.563c-0.288-0.634,0.359-1.356,0.945-1.77c2.734-1.924,4.478-5.318,5.127-6.755  c-2.563-1.295-4.125-3.082-4.125-5.084l0-3.336c-1.57-0.989-3.074-2.143-4.496-3.462c-0.783-0.726-1.525-1.497-2.234-2.3  c-0.283,0.236-0.56,0.453-0.815,0.652c-1.563,1.217-1.734,1.515-1.734,2.164s0.171,0.946,1.734,2.164  c1.562,1.217,3.924,3.057,3.924,6.647c0,1.567-1.274,2.842-2.841,2.842s-2.841-1.274-2.841-2.842c0-0.648-0.17-0.946-1.733-2.164  c-1.227-0.955-2.941-2.298-3.624-4.567c-0.292,0.478-0.544,0.991-0.732,1.555c-0.886,2.658-8.116,0.945-6.847-2.694  c1.492-4.279,5.864-5.898,9.835-6.452c0.473-0.438,0.949-0.811,1.368-1.137c0.375-0.292,0.667-0.529,0.899-0.733  c-1.005-1.608-1.892-3.313-2.653-5.107c-1.146-1.167-2.171-2.77-2.171-5.135c0-0.41,0.034-0.806,0.095-1.189  c-0.104-0.437-0.205-0.873-0.296-1.315c-0.074-0.074-0.143-0.149-0.208-0.225c-0.003-0.005-0.007-0.009-0.01-0.014  c-0.062-0.071-0.119-0.144-0.171-0.217c-0.004-0.005-0.008-0.011-0.012-0.016c-0.163-0.229-0.287-0.464-0.371-0.704  c-0.006-0.019-0.012-0.037-0.018-0.057c-0.019-0.059-0.036-0.118-0.05-0.177c-0.005-0.024-0.011-0.049-0.016-0.072  c-0.012-0.058-0.021-0.115-0.029-0.174c-0.003-0.022-0.007-0.046-0.009-0.069c-0.007-0.08-0.013-0.16-0.013-0.241  c0-0.086,0.006-0.171,0.015-0.255c0.003-0.017,0.005-0.034,0.007-0.052c0.009-0.073,0.022-0.146,0.038-0.218  c0.002-0.01,0.004-0.02,0.007-0.029c0.125-0.526,0.43-1.021,0.921-1.488c0.002-0.002,0.005-0.005,0.008-0.007  c0.002-0.003,0.006-0.005,0.009-0.008c0.184-0.173,0.394-0.343,0.629-0.508c0.272-0.951,0.655-1.845,1.139-2.657  c-3.713-0.827-6.836-3.297-8.33-6.764c-0.544-1.263-0.715-2.486-0.697-3.527c-1.084-0.901-1.666-2.791-1.687-4.498  c-0.019-1.469,0.364-2.71,1.05-3.405c0.535-0.542,1.249-0.737,1.938-0.534c0.666,0.197,1.202,0.721,1.608,1.412  c0.795-0.996,1.726-1.57,2.603-1.57c0.538,0,1.033,0.219,1.395,0.616c1.131,1.24,0.647,3.721-0.416,5.529  c-0.568,0.966-1.256,1.686-1.964,2.084c0.829,0.702,2.234,1.169,3.725,1.169c0.899,0,1.758-0.171,2.487-0.496  c1.362-0.606,1.934-2.115,2.01-3.223c0.043-0.624,0.528-1.353,1.754-1.353c0.165,0,0.303,0.013,0.382,0.022  c0.205,0.009,1.002,0.044,2.022,0.091c-1.036-2.893-0.904-5.709,0.559-7.841c1.533-2.234,4.249-3.418,7.674-3.353L32.939,4.437  c-0.375-1.463,0.503-2.949,1.956-3.322c1.454-0.374,2.939,0.506,3.312,1.958l5.116,20.792c1.68,0.611,3.348,1.465,4.927,2.548  c3.772,2.587,5.966,5.767,6.321,9.072c0.125-0.009,0.249-0.022,0.374-0.029c-0.152-0.886,0.001-1.81,0.458-2.604  c0.51-0.881,1.338-1.518,2.298-1.793c0.189-0.625,0.537-1.189,1-1.646l7.834-16.963c0.647-1.365,2.273-1.944,3.629-1.302  c1.355,0.643,1.936,2.269,1.294,3.624l-6.132,12.604c0.904,0.071,1.751,0.453,2.397,1.077c0.956-0.223,1.979-0.072,2.828,0.417  c0.882,0.51,1.519,1.338,1.794,2.299c0.937,0.284,1.743,0.915,2.24,1.774c0.51,0.882,0.646,1.917,0.405,2.888  c0.669,0.715,1.053,1.664,1.053,2.658c0,1.018-0.398,1.984-1.093,2.703c0.095,0.407,0.119,0.825,0.081,1.237  c0.479-0.054,0.96-0.084,1.442-0.084c4.863,0,9.206,2.764,11.064,7.042c0.549,1.263,0.723,2.485,0.707,3.525  C89.334,53.81,89.92,55.697,89.946,57.404z M18.597,79.119c-0.072-0.25-0.333-0.396-0.584-0.323  c-0.52,0.148-1.128,0.146-1.715-0.005c-0.809-0.211-1.502-0.689-1.852-1.28c-0.086-0.145-0.236-0.228-0.393-0.231  c-0.086-0.003-0.174,0.02-0.254,0.066c-0.224,0.132-0.298,0.422-0.166,0.646c0.481,0.812,1.366,1.437,2.428,1.712  c0.757,0.197,1.522,0.196,2.212-0.001C18.524,79.631,18.669,79.37,18.597,79.119z M38.604,95.913  c-1.078-0.833-2.405-1.343-3.838-1.474c-0.204-0.018-0.381,0.131-0.394,0.335c-0.014,0.203,0.141,0.383,0.346,0.402  c1.29,0.118,2.48,0.573,3.444,1.317c0.075,0.06,0.166,0.085,0.252,0.079c0.103-0.006,0.199-0.054,0.266-0.14  C38.802,96.272,38.768,96.04,38.604,95.913z M59.491,96.088c0.07,0.086,0.17,0.134,0.272,0.14c0.087,0.006,0.177-0.02,0.249-0.079  c0.924-0.743,2.09-1.198,3.373-1.317c0.204-0.019,0.35-0.198,0.325-0.402s-0.209-0.352-0.411-0.335  c-1.427,0.132-2.727,0.641-3.761,1.475C59.382,95.694,59.36,95.928,59.491,96.088z M77.219,81.895  c0.633,0.339,1.381,0.5,2.161,0.466c1.095-0.046,2.089-0.471,2.729-1.164c0.177-0.192,0.164-0.491-0.026-0.667  c-0.068-0.063-0.149-0.103-0.233-0.118c-0.154-0.029-0.319,0.021-0.433,0.144c-0.466,0.505-1.241,0.827-2.076,0.862  c-0.604,0.025-1.2-0.101-1.677-0.355c-0.229-0.123-0.516-0.035-0.638,0.194C76.902,81.486,76.99,81.771,77.219,81.895z   M74.113,44.606c-0.115,0.133-0.237,0.26-0.367,0.375c0.415,0.334,0.814,0.693,1.203,1.065l-0.24-1.554  C74.511,44.525,74.312,44.563,74.113,44.606z M65.022,29.366c-0.258,0-0.508,0.056-0.738,0.156l-2.074,4.263  c2.072-0.949,4.073-0.473,5.489,0.536c2.315,1.65,3.177,4.647,1.962,6.824c-0.068,0.123-0.145,0.239-0.225,0.353  c0.851,0.91,1.198,1.328,1.28,1.502c0.445,0.231,0.88,0.483,1.305,0.75c0.32-0.163,0.593-0.415,0.777-0.734  c0.304-0.526,0.333-1.173,0.078-1.73c-0.202-0.442-0.058-0.966,0.344-1.242c0.514-0.354,0.819-0.935,0.819-1.555  c0-0.607-0.298-1.183-0.798-1.538c-0.396-0.282-0.533-0.808-0.323-1.248c0.268-0.563,0.243-1.22-0.067-1.756  c-0.305-0.526-0.85-0.875-1.46-0.933c-0.484-0.045-0.866-0.434-0.904-0.919c-0.05-0.621-0.399-1.177-0.937-1.487  c-0.522-0.301-1.184-0.329-1.73-0.078c-0.441,0.203-0.967,0.059-1.243-0.343C66.225,29.672,65.643,29.366,65.022,29.366z   M67.972,40.04c0.68-1.411-0.19-3.199-1.437-4.086c-1.46-1.042-3.183-0.852-4.731,0.477c0.907,0.316,1.793,0.707,2.653,1.171  C65.707,38.276,66.894,39.084,67.972,40.04z M63.516,39.344c-1.076-0.581-2.198-1.029-3.354-1.348l-0.893,1.836  c1.041,0.259,2.053,0.639,3.023,1.137c0.842-0.004,1.686,0.047,2.523,0.162c0.589,0.081,1.169,0.189,1.739,0.324  C65.613,40.637,64.597,39.927,63.516,39.344z M52.112,48.463c0.188,0.111,0.374,0.226,0.56,0.343l16.979-34.901  c0.164-0.348,0.012-0.776-0.345-0.945c-0.357-0.169-0.785-0.017-0.954,0.341L52.112,48.463z M49.931,57.023  c0.421,0.57,0.815,1.163,1.176,1.78c0.763-0.007,1.519-0.021,2.27-0.04c-0.724-1.393-1.587-2.688-2.572-3.878  C50.556,55.603,50.264,56.316,49.931,57.023z M51.17,44.958c0.176-0.23,0.389-0.437,0.636-0.613l1.198-2.593  c-0.043,0.011-0.086,0.018-0.129,0.029c-0.971,0.252-1.908,0.627-2.803,1.114C50.52,43.503,50.888,44.194,51.17,44.958z   M53.671,54.665c0.181-0.583,0.493-1.119,0.921-1.561c-0.031-0.133-0.054-0.267-0.07-0.4c-0.867-0.794-1.787-1.505-2.752-2.129  c-0.07,0.72-0.19,1.449-0.356,2.184C52.204,53.327,52.959,53.964,53.671,54.665z M54.926,50.438  c0.027-0.054,0.053-0.109,0.083-0.161c0.462-0.801,1.196-1.412,2.068-1.721h0.001c0.075-0.027,0.151-0.051,0.228-0.073  c0.056-0.182,0.127-0.356,0.208-0.526c-0.787,0.341-1.549,0.762-2.279,1.269c-0.221,0.152-0.459,0.265-0.705,0.351l-0.191,0.393  C54.535,50.121,54.731,50.277,54.926,50.438z M51.874,37.924c-1.617,0.419-3.159,1.09-4.601,1.991l0.197,0.803  c0.185,0.089,0.368,0.184,0.545,0.29c0.215,0.129,0.418,0.271,0.616,0.421c1.183-0.701,2.438-1.226,3.747-1.564  c0.542-0.141,1.092-0.244,1.645-0.318l0.974-2.107C53.943,37.496,52.898,37.657,51.874,37.924z M46.673,37.479l0.105,0.427  c0.199-0.114,0.397-0.228,0.598-0.335C47.144,37.533,46.909,37.505,46.673,37.479z M48.273,35.712  c0.032-1.379-0.624-2.709-1.805-3.52c-0.388-0.266-0.806-0.454-1.236-0.572l0.94,3.822C46.877,35.492,47.578,35.581,48.273,35.712z   M43.914,26.262l0.795,3.234c1.006,0.094,2.001,0.432,2.893,1.042c1.876,1.288,2.858,3.461,2.647,5.66  c0.074,0.023,0.148,0.048,0.223,0.071c0.299-0.095,0.6-0.184,0.905-0.263c0.402-0.104,0.808-0.189,1.214-0.265  c-0.279-2.728-2.186-5.42-5.474-7.675C46.08,27.354,45.003,26.75,43.914,26.262z M44.532,40.012c0.242,0.008,0.48,0.027,0.715,0.057  L36.264,3.562c-0.096-0.373-0.486-0.604-0.87-0.506c-0.382,0.098-0.613,0.49-0.516,0.872L44.532,40.012z M31.379,47.571  c0.539,0.123,1.077-0.214,1.2-0.754c0.124-0.541-0.214-1.078-0.754-1.201c-0.538-0.123-1.092-0.186-1.646-0.186  c-3.889,0-7.224,3.053-7.928,7.26c-0.018,0.104-0.017,0.206-0.002,0.306c0.431-0.393,1.229-0.989,2.322-1.262  c0.909-2.551,3.105-4.298,5.607-4.298C30.583,47.436,30.987,47.481,31.379,47.571z M30.938,49.501  c-0.248-0.057-0.504-0.085-0.759-0.085c-1.427,0-2.713,0.902-3.444,2.289c0.604,0.128,1.165,0.363,1.664,0.682  c0.425-0.659,1.092-1.141,2.131-1.363c0.215-0.487,0.458-0.977,0.726-1.468C31.149,49.543,31.044,49.525,30.938,49.501z   M33.903,44.699c0.201-0.273,0.378-0.526,0.453-0.605c1.814-1.925,4.048-3.337,6.458-4.085c0.506-0.157,1.021-0.281,1.54-0.378  l-0.52-1.941c-0.544,0.107-1.083,0.24-1.614,0.405c-2.74,0.85-5.44,2.303-7.323,4.625c-0.361,0.444-0.584,0.746-0.709,0.951  c0.026,0.005,0.053,0.01,0.079,0.016C32.918,43.834,33.487,44.19,33.903,44.699z M39.991,36.099  c0.439-0.126,0.883-0.234,1.331-0.327l-0.659-2.463C40.104,34.142,39.875,35.124,39.991,36.099z M34.838,38.502  c1.023-0.684,2.103-1.263,3.225-1.729c-0.311-1.61,0.028-3.265,0.971-4.639c0.294-0.429,0.638-0.802,1.012-1.13l-1.655-6.187  c-0.143-0.01-0.287-0.022-0.429-0.027c-2.79-0.088-4.976,0.792-6.135,2.481C29.898,30.083,31.144,34.625,34.838,38.502z   M16.516,34.645c0.006,0.448-0.03,0.87-0.096,1.267c0.285-0.208,0.668-0.593,1.051-1.244c0.854-1.454,0.874-2.782,0.695-3.115  c-0.227,0.058-0.825,0.433-1.417,1.441c-0.122,0.208-0.225,0.411-0.314,0.611C16.482,33.952,16.511,34.302,16.516,34.645z   M14.511,34.669c-0.021-1.686-0.692-2.833-1.02-3.026c-0.16,0.165-0.481,0.804-0.466,1.967c0.021,1.687,0.693,2.834,1.02,3.026  C14.208,36.474,14.526,35.85,14.511,34.669z M23.082,46.621c0.307-0.331,0.633-0.64,0.977-0.925l-0.427-2.826  c-0.083-0.547,0.294-1.058,0.841-1.141c0.549-0.084,1.059,0.294,1.142,0.841l0.288,1.91c1.193-0.606,2.509-0.963,3.889-1.021  c0.168-0.322,0.452-0.725,0.886-1.235l-1.964-1.467c-0.443-0.332-0.534-0.959-0.203-1.403s0.959-0.535,1.403-0.203l2.145,1.602  c0.376-0.365,0.764-0.714,1.164-1.046c-1.096-1.181-1.996-2.423-2.68-3.678c-1.134-0.053-2.247-0.104-3.08-0.14  c-0.021-0.001-0.043-0.003-0.065-0.005c-0.299,1.968-1.492,3.656-3.137,4.389c-0.982,0.437-2.124,0.669-3.302,0.669  c-2.541,0-4.816-1.037-5.864-2.591c-0.121,0.079-0.246,0.143-0.377,0.191c0.026,0.687,0.165,1.485,0.527,2.326  c0.448,1.04,1.079,1.968,1.843,2.766l1.086-1.396c0.34-0.436,0.969-0.516,1.407-0.175c0.437,0.34,0.515,0.97,0.176,1.407  l-1.137,1.461C19.919,45.821,21.446,46.405,23.082,46.621z M29.571,66.928c0-2.692-1.708-4.023-3.215-5.196  c-1.514-1.18-2.443-1.985-2.443-3.615c0-0.969,0.33-1.646,0.914-2.284c0.294-0.25,0.543-0.405,0.875-0.396  c0.637,0.019,1.137,0.505,1.137,1.108c0,0.005-0.001,0.01-0.001,0.015c0.618,0.158,1.277,0.309,1.967,0.453  c0.023-0.154,0.039-0.311,0.039-0.468c0-1.695-1.355-3.062-3.084-3.112c-0.029-0.001-0.059-0.002-0.087-0.001  c-1.445,0.032-2.367,1.104-2.377,1.115l0.001,0.003c-0.795,0.887-1.388,1.98-1.388,3.567c0,2.692,1.708,4.023,3.215,5.196  c1.515,1.18,2.443,1.985,2.443,3.615s-0.928,2.436-2.443,3.615c-1.507,1.174-3.215,2.504-3.215,5.197  c0,2.692,1.708,4.022,3.215,5.196c1.515,1.18,2.443,1.985,2.443,3.615c0,0.554,0.449,1.003,1.002,1.003s1.002-0.449,1.002-1.003  c0-2.692-1.708-4.022-3.215-5.196c-1.514-1.18-2.443-1.985-2.443-3.615c0-1.631,0.929-2.437,2.443-3.615  C27.863,70.951,29.571,69.62,29.571,66.928z M59.968,82.002c-1.768-2.886-3.772-6.155-8.512-7.329  c-0.537-0.133-1.081,0.194-1.214,0.732c-0.133,0.537,0.195,1.081,0.732,1.214c3.941,0.976,5.64,3.748,7.283,6.43  c1.392,2.271,2.831,4.619,5.573,5.382c0.594,0.165,1.145,0.237,1.656,0.237c2.701,0,4.267-2.035,4.764-3.309  c0.2-0.514-0.053-1.089-0.564-1.292c-0.512-0.204-1.094,0.047-1.301,0.558c-0.111,0.275-1.172,2.664-4.018,1.874  C62.386,85.948,61.265,84.119,59.968,82.002z M61.506,81.059c0.203,0.332,0.396,0.642,0.58,0.933v-1.992  c-0.315,0.159-0.632,0.311-0.951,0.457C61.261,80.661,61.386,80.863,61.506,81.059z M77.141,57.16  c-1.526,0.685-3.582,1.293-6.181,1.832c-2.023,0.42-4.286,0.771-6.719,1.051c-0.506-1.714-1.34-3.051-2.381-3.796  c0.244-0.406,0.649-0.83,1.324-1.161c0.498-0.243,1.098-0.038,1.342,0.458c0.244,0.497,0.039,1.098-0.458,1.342  c-0.217,0.106-0.487,0.286-0.549,0.538c-0.045,0.186,0.021,0.428,0.169,0.665c0.066-0.008,0.133-0.015,0.197-0.022  c0.19-0.021,0.38-0.043,0.567-0.065c0.107-0.014,0.214-0.026,0.321-0.039c0.945-0.117,1.862-0.246,2.747-0.386  c0.784-1.427-0.104-3.288-1.383-4.199c-1.678-1.196-3.701-0.77-5.411,1.143c-0.368,0.413-1.002,0.449-1.415,0.08  s-0.448-1.003-0.079-1.415c2.895-3.239,6.066-2.868,8.069-1.44c1.855,1.322,2.773,3.508,2.442,5.444  c0.271-0.052,0.544-0.104,0.809-0.159c0.264-0.055,0.517-0.11,0.765-0.166c0.061-0.013,0.121-0.027,0.181-0.04  c0.232-0.054,0.46-0.106,0.678-0.16c0.008-0.002,0.017-0.004,0.024-0.006c0.241-0.06,0.474-0.119,0.697-0.178  c0.025-0.007,0.05-0.014,0.074-0.021c0.215-0.058,0.424-0.115,0.624-0.173c0.003-0.001,0.006-0.002,0.009-0.003  c0.024-0.121,0.038-0.245,0.038-0.372c0-0.608-0.298-1.183-0.797-1.538c-0.397-0.282-0.534-0.809-0.324-1.248  c0.268-0.562,0.243-1.219-0.067-1.756c-0.305-0.526-0.85-0.875-1.46-0.934c-0.484-0.046-0.866-0.433-0.904-0.918  c-0.05-0.621-0.399-1.178-0.937-1.488c-0.527-0.304-1.174-0.333-1.729-0.078c-0.443,0.203-0.968,0.058-1.244-0.343  c-0.353-0.513-0.934-0.819-1.555-0.819c-0.607,0-1.184,0.298-1.537,0.797c-0.283,0.397-0.81,0.533-1.249,0.325  c-0.563-0.269-1.22-0.244-1.756,0.066c-0.526,0.305-0.875,0.85-0.933,1.459c-0.046,0.485-0.434,0.867-0.92,0.905  c-0.165,0.014-0.328,0.048-0.484,0.103v0.001c-0.422,0.149-0.778,0.445-1.002,0.833c-0.305,0.527-0.334,1.173-0.079,1.729  c0.203,0.443,0.059,0.968-0.343,1.243c-0.513,0.354-0.819,0.936-0.819,1.556c0,0.607,0.298,1.183,0.797,1.537  c0.131,0.093,0.23,0.215,0.302,0.349c-0.53,0.819-0.949,1.844-1.222,3.018c-1.85,0.073-3.742,0.111-5.664,0.111  c-0.98,0-1.953-0.011-2.917-0.03c-0.167-0.737-0.391-1.417-0.663-2.026c0.173,0.005,0.344,0.011,0.517,0.015  c0.159-0.241,0.317-0.486,0.471-0.744c1.834-3.058,2.796-6.374,2.711-9.336c-0.082-2.798-1.094-4.918-2.852-5.972  c-0.793-0.476-1.71-0.717-2.724-0.717c-0.023,0-0.357-0.009-0.768,0.045c-3.51,0.394-7.47,3.412-10.078,7.761  c-1.644,2.74-2.375,5.376-2.134,7.659c0.779,0.129,1.584,0.25,2.414,0.362c0.002,0,0.005,0,0.007,0  c-0.11-0.271-0.204-0.549-0.276-0.838c-0.4-1.597-0.154-3.254,0.693-4.665c1.106-1.847,3.133-2.994,5.29-2.994  c1.112,0,2.206,0.304,3.164,0.877c2.476,1.485,3.526,4.444,2.717,7.087c-0.506-0.669-1.097-1.167-1.749-1.449  c0.128-1.531-0.595-3.076-1.999-3.918c-0.646-0.388-1.384-0.593-2.133-0.593c-1.478,0-2.812,0.755-3.57,2.021  c-0.571,0.952-0.737,2.069-0.468,3.146c0.152,0.607,0.436,1.156,0.821,1.626c0.01,0.001,0.021,0.002,0.032,0.003  c0.448,0.048,0.901,0.094,1.359,0.136c0.043,0.004,0.086,0.008,0.13,0.013c0.287,0.026,0.579,0.05,0.87,0.075  c-0.296,0.579-0.545,1.233-0.738,1.95c-2.884-0.259-5.575-0.612-7.982-1.054c0,0.001-0.001,0.001-0.001,0.002  c-0.055-0.011-0.107-0.021-0.163-0.031c-0.111-0.021-0.221-0.042-0.33-0.063c-0.242-0.046-0.481-0.093-0.716-0.141  c-0.059-0.012-0.12-0.023-0.178-0.035l-0.002-0.002c-0.639-0.133-1.253-0.271-1.834-0.415c-0.363-0.09-0.698,0.594,0.222,1.372  c0.205,0.174,0.544,0.375,0.946,0.584c1.546,1.217,3.605,3.041,3.605,6.396c0,2.001-0.734,3.457-1.654,4.566  c3.965,4.507,9.012,7.633,14.592,8.866c-0.145,0.516-0.209,1.098-0.209,1.668c0,0.025,0.001,0.159,0.014,0.358  c-2.471-0.511-4.855-1.363-7.118-2.545v2.18c0,2.467,5.144,5.215,12.525,5.215c3.32,0,6.187-0.557,8.337-1.394  c-0.42-0.615-0.806-1.243-1.178-1.851c-0.589-0.961-1.149-1.872-1.784-2.68c0.029,0.235,0.046,0.479,0.046,0.716  c0,0.837-0.318,2.358-0.831,2.23l-3.866-1.571c-0.058-0.018-0.11-0.041-0.158-0.067c-0.047,0.026-0.1,0.05-0.158,0.067l-3.866,1.571  c-0.512,0.128-0.831-1.394-0.831-2.23c0-1.061,0.306-2.28,0.831-2.171l3.956,1.814c0.024,0.013,0.046,0.025,0.068,0.038  c0.022-0.013,0.043-0.025,0.068-0.038l3.557-1.632c-0.472-0.417-0.994-0.784-1.596-1.083c-0.224,0.062-0.463,0.097-0.719,0.097  h-0.771c-2.041,0-3.056-2.157-3.056-3.88s1.371-3.055,3.056-3.055h0.771c1.146,0,2.146,0.618,2.669,1.556  c2.758,1.213,4.549,3.154,5.889,5.048C68.092,75.093,74.502,67.266,77.141,57.16z M77.193,52.383  c-2.615-5.164-7.224-8.549-12.646-9.29c-1.676-0.229-3.367-0.192-5.029,0.111c-0.734,0.134-1.455,0.32-2.16,0.554l-1.315,2.703  c1.224-0.608,2.506-1.041,3.835-1.284c1.162-0.211,2.341-0.272,3.517-0.187c0.394-0.132,0.808-0.206,1.231-0.206  c1,0,1.948,0.386,2.662,1.058c0.025,0.009,0.051,0.018,0.075,0.028c0.943-0.21,1.942-0.067,2.792,0.423  c0.883,0.509,1.52,1.337,1.795,2.298c0.937,0.285,1.743,0.915,2.241,1.775c0.3,0.52,0.467,1.093,0.508,1.675  c0.249,0.403,0.487,0.815,0.706,1.247c0.154,0.306,0.443,0.497,0.759,0.54c0.195,0.027,0.399-0.003,0.588-0.099  C77.246,53.479,77.443,52.876,77.193,52.383z M84.448,56.409c-0.008-0.447,0.027-0.87,0.093-1.267  c-0.285,0.209-0.666,0.595-1.047,1.246c-0.853,1.458-0.867,2.786-0.687,3.118c0.226-0.058,0.822-0.434,1.412-1.445  c0.122-0.207,0.224-0.411,0.313-0.611C84.483,57.103,84.453,56.752,84.448,56.409z M86.235,52.511  c-0.028-0.688-0.169-1.486-0.534-2.327c-0.45-1.038-1.085-1.964-1.851-2.761l-1.082,1.398c-0.197,0.255-0.494,0.389-0.794,0.389  c-0.214,0-0.43-0.068-0.612-0.209c-0.438-0.339-0.518-0.968-0.179-1.406l1.133-1.465c-1.599-1.089-3.536-1.726-5.6-1.772  l0.592,3.848c0.027,0.175,0.003,0.345-0.055,0.5c0.368,0.51,0.716,1.041,1.042,1.592c0.554-0.112,1.129-0.171,1.716-0.171  c2.53,0,4.804,1.028,5.854,2.573C85.983,52.622,86.107,52.56,86.235,52.511z M87.941,57.434c-0.026-1.685-0.7-2.83-1.028-3.022  c-0.16,0.165-0.479,0.805-0.46,1.968c0.024,1.688,0.7,2.833,1.027,3.024C87.644,59.238,87.959,58.612,87.941,57.434z M51.199,67.375  c-1.067,0-1.933,0.465-1.933,1.037c0,0.573,0.866,1.038,1.933,1.038c1.068,0,1.934-0.465,1.934-1.038  C53.133,67.84,52.268,67.375,51.199,67.375z M63.268,64.004c0,1.627-0.276,3.122-0.737,4.312c-0.646-0.134-1.367-0.259-2.135-0.363  c-1.367-0.188-2.615-0.277-3.54-0.272c-0.328-1.068-0.52-2.326-0.52-3.676c0-3.867,1.552-7.002,3.466-7.002  S63.268,60.137,63.268,64.004z M61.265,63.475c0.018-0.52-0.145-0.951-0.361-0.963c-0.219-0.012-0.41,0.4-0.428,0.92  s0.144,0.951,0.361,0.963S61.246,63.994,61.265,63.475z M61.144,65.066c-0.03,0.868,0.24,1.589,0.604,1.608s0.684-0.668,0.713-1.536  c0.031-0.868-0.24-1.589-0.604-1.608S61.173,64.198,61.144,65.066z M45.21,67.68c-0.925-0.005-2.173,0.085-3.541,0.272  c-0.767,0.104-1.488,0.229-2.134,0.363c-0.461-1.189-0.738-2.685-0.738-4.312c0-3.867,1.551-7.002,3.465-7.002  c1.915,0,3.466,3.135,3.466,7.002C45.729,65.354,45.538,66.611,45.21,67.68z M43.727,63.475c0.018-0.52-0.144-0.951-0.361-0.963  s-0.41,0.4-0.428,0.92s0.144,0.951,0.362,0.963C43.517,64.406,43.708,63.994,43.727,63.475z M44.319,63.53  c-0.364-0.02-0.684,0.668-0.713,1.536c-0.03,0.868,0.24,1.589,0.603,1.608c0.364,0.02,0.684-0.668,0.714-1.536  S44.683,63.55,44.319,63.53z" transform="matrix(1, 0, 0, 1, 0, 0)" fill="#141445"/>
    </g>
    <path fill="#141445"  transform="matrix(1.9638535976409912, 0, 0, 1.9638535976409912, 255.64590454101562, 384.68817138671875)"  d="M-101.3459375-15.68L-101.3459375-16.8Q-101.3459375-17.65 -101.9759375-17.65L-101.9759375-17.65Q-102.5659375-17.65 -102.5659375-16.95L-102.5659375-16.95L-102.5659375-14.53Q-102.37593749999999-14.37 -101.9959375-14.37Q-101.62593749999999-14.37 -101.4859375-14.65Q-101.3459375-14.93 -101.3459375-15.68L-101.3459375-15.68ZM-100.4759375-7.31L-100.4759375-7.31Q-101.9759375-7.31 -103.0359375-7.52L-103.0359375-7.52Q-103.1059375-7.31 -103.1059375-7.13L-103.1059375-7.13Q-103.1059375-6.61 -102.3659375-6.43Q-101.62593749999999-6.26 -100.4759375-6.26L-100.4759375-6.26Q-96.8159375-6.26 -94.2459375-7.34L-94.2459375-7.34Q-91.7059375-6.68 -90.3059375-4.48L-90.3059375-4.48Q-89.1559375-2.67 -89.1559375-0.23L-89.1559375-0.23Q-89.1559375 4.1 -92.8359375 6.52Q-96.5159375 8.93 -102.3159375 8.93Q-108.1159375 8.93 -111.2859375 6.87L-111.2859375 6.87Q-114.2059375 4.99 -114.2059375 1.99L-114.2059375 1.99Q-114.2059375 0.84 -113.6759375-0.22Q-113.1359375-1.29 -112.4259375-1.69L-112.4259375-1.69Q-111.2559375-0.7 -108.9759375-0.09Q-106.6859375 0.52 -104.2759375 0.52Q-101.8559375 0.52 -101.1659375 0.33Q-100.4759375 0.14 -100.4759375-0.33L-100.4759375-0.33Q-100.4759375-0.56 -100.6159375-0.8L-100.6159375-0.8Q-101.7859375-0.54 -103.54593750000001-0.54L-103.54593750000001-0.54Q-108.0659375-0.54 -110.6459375-1.83L-110.6459375-1.83Q-113.7859375-3.38 -113.7859375-6.49L-113.7859375-6.49Q-113.7859375-7.71 -113.2959375-8.75Q-112.8059375-9.8 -111.8459375-10.31L-111.8459375-10.31Q-113.1359375-11.11 -114.0359375-12.73Q-114.9359375-14.34 -114.9359375-16.71L-114.9359375-16.71Q-114.9359375-21.21 -111.5659375-23.81Q-108.1859375-26.41 -102.79593750000001-26.41L-102.79593750000001-26.41Q-100.1959375-26.41 -97.7859375-25.55L-97.7859375-25.55L-97.7859375-27.19Q-96.3959375-27.73 -94.1159375-27.73Q-91.8259375-27.73 -90.6359375-26.95L-90.6359375-26.95Q-89.1759375-26.02 -89.1759375-23.65L-89.1759375-23.65Q-89.1759375-22.34 -89.4459375-21.54Q-89.7159375-20.74 -90.2359375-19.88L-90.2359375-19.88Q-89.62593749999999-18.33 -89.62593749999999-16.03L-89.62593749999999-16.03Q-89.62593749999999-11.88 -92.5659375-9.6Q-95.5059375-7.31 -100.4759375-7.31ZM-76.1465625-13.05L-76.1465625-13.05L-76.1465625-8.95Q-75.9865625-8.79 -75.6065625-8.79Q-75.2365625-8.79 -75.0665625-9.05Q-74.9065625-9.3 -74.9065625-9.94L-74.9065625-9.94L-74.9065625-13.29Q-74.9065625-15.54 -75.0965625-16.28Q-75.2765625-17.02 -75.7965625-17.02L-75.7965625-17.02Q-76.1265625-17.02 -76.3565625-16.78L-76.3565625-16.78Q-76.1465625-14.46 -76.1465625-13.05ZM-84.9165625-2.67L-84.9165625-2.67Q-88.7565625-6.38 -88.7565625-12.71Q-88.7565625-19.05 -85.1365625-22.72Q-81.5165625-26.39 -75.6365625-26.39Q-69.7465625-26.39 -66.1165625-22.57L-66.1165625-22.57Q-62.5065625-18.75 -62.5065625-12.62Q-62.5065625-6.49 -65.9865625-2.88Q-69.4665625 0.73 -75.4465625 0.73Q-81.4265625 0.73 -84.9165625-2.67ZM-48.4946875-10.22L-48.4946875-10.22Q-48.2146875-10.22 -47.8846875-10.45L-47.8846875-10.45Q-48.1146875-11.23 -48.1146875-12.87L-48.1146875-12.87L-48.1146875-24.45Q-45.6346875-25.95 -42.1446875-25.95L-42.1446875-25.95Q-40.174687500000005-25.95 -38.684687499999995-25.42Q-37.1946875-24.89 -36.3946875-24.02L-36.3946875-24.02L-36.3946875-11.81Q-36.3946875-8.32 -34.7146875-7.27L-34.7146875-7.27Q-34.684687499999995-7.15 -34.684687499999995-6.82L-34.684687499999995-6.82L-34.684687499999995-6.4Q-34.684687499999995-2.98 -36.4946875-1.22L-36.4946875-1.22Q-38.1346875 0.42 -41.0146875 0.42L-41.0146875 0.42Q-42.824687499999996 0.42 -44.284687500000004-0.4Q-45.7546875-1.22 -46.4746875-2.79L-46.4746875-2.79Q-47.2746875-2.79 -47.2746875-2.02L-47.2746875-2.02Q-47.2746875-1.48 -46.7346875-0.94L-46.7346875-0.94Q-47.4846875-0.33 -48.534687500000004 0.05Q-49.5946875 0.42 -51.6446875 0.42Q-53.6946875 0.42 -55.6446875-0.42L-55.6446875-0.42Q-58.0546875-1.45 -59.3446875-3.59L-59.3446875-3.59Q-60.9146875-6.12 -60.9146875-10.01L-60.9146875-10.01L-60.9146875-15.89Q-62.1046875-17.98-62.1046875-20.48L-62.1046875-20.48Q-62.1046875-21.77 -61.7846875-23.16Q-61.4546875-24.54 -60.7246875-25.62L-60.7246875-25.62L-55.574687499999996-25.62Q-52.6646875-25.62 -51.0146875-24.25Q-49.3546875-22.88 -49.3546875-20.09L-49.3546875-20.09L-49.3546875-12.49Q-49.3546875-10.22 -48.4946875-10.22ZM-27.02625 0.3L-27.02625 0.3Q-29.81625 0.3 -31.47625-0.7L-31.47625-0.7Q-33.32625-1.76 -33.32625-3.82L-33.32625-3.82L-33.32625-15.89Q-34.70625-17.84-34.70625-20.68Q-34.70625-23.53 -33.32625-25.62L-33.32625-25.62L-29.74625-25.62Q-26.97625-25.62 -25.776249999999997-23.84L-25.776249999999997-23.84Q-26.36625-23.18 -26.81625-22.17Q-27.25625-21.16 -27.25625-20.73Q-27.25625-20.3 -27.03625-20.09Q-26.81625-19.88 -26.38625-19.88L-26.38625-19.88Q-25.56625-23.13 -23.276249999999997-24.66L-23.276249999999997-24.66Q-21.37625-25.95 -18.58625-25.95L-18.58625-25.95Q-15.11625-25.95 -13.146249999999998-24.47L-13.146249999999998-24.47Q-12.44625-22.59 -12.44625-19.89Q-12.44625-17.18 -13.526250000000001-14.98L-13.526250000000001-14.98Q-14.31625-14.55 -15.72625-14.26Q-17.13625-13.97 -18.56625-13.97Q-19.99625-13.97 -21.12625-14.17Q-22.26625-14.37 -22.776249999999997-14.53L-22.776249999999997-14.53Q-22.966250000000002-14.34 -22.966250000000002-13.99Q-22.966250000000002-13.64 -22.51625-13.46Q-22.05625-13.29 -20.97625-13.08L-20.97625-13.08L-20.97625-1.31Q-23.526249999999997 0.3 -27.02625 0.3ZM 27.5634375-16.27L 27.473437500000003-11.6Q 27.473437500000003-9.89  27.8434375-8.81Q 28.223437500000003-7.73  29.153437500000003-7.15L 29.153437500000003-7.15Q 29.183437499999997-7.03  29.183437499999997-6.75L 29.183437499999997-6.75L 29.183437499999997-6.4Q 29.183437499999997-3.19  27.3034375-1.38Q 25.433437499999997 0.42  22.463437499999998 0.42Q 19.5034375 0.42  17.6934375-1.2L 17.6934375-1.2Q 15.5634375-3.07  15.5634375-6.94L 15.5634375-6.94L 15.5634375-14.34Q 15.5634375-15.91  14.533437500000002-15.91L 14.533437500000002-15.91Q 14.1334375-15.91  13.903437499999999-15.73L 13.903437499999999-15.73L 14.3234375-12.23L 14.3234375-6.94Q 14.3234375-3.75  15.373437500000001-2.11L 15.373437500000001-2.11Q 14.2534375-0.91  12.5734375-0.25Q 10.903437499999999 0.42  9.1634375 0.42L 9.1634375 0.42Q 6.353437499999998 0.42  4.803437500000001-0.94L 4.803437500000001-0.94Q 2.9334375-2.58  2.9334375-6.12L 2.9334375-6.12L 2.9334375-14.34Q 2.9334375-15.91  1.9034375000000008-15.91L 1.9034375000000008-15.91Q 1.5034375000000004-15.91  1.2634375000000002-15.73L 1.2634375000000002-15.73L 1.6834375000000001-12.23L 1.6834375000000001-6.02Q 1.6834375000000001-3.4  2.393437499999999-1.97L 2.393437499999999-1.97Q 0.09343750000000028 0.4 -4.0565625 0.4L-4.0565625 0.4Q-6.5165625 0.4 -8.2065625-0.84L-8.2065625-0.84Q-10.1465625-2.27 -10.1465625-4.69L-10.1465625-4.69L-10.1465625-15.89Q-11.5265625-17.84-11.5265625-20.68Q-11.5265625-23.53 -10.1465625-25.62L-10.1465625-25.62L-4.4965625-25.62Q-2.8365624999999994-25.62 -1.6665624999999995-24.38L-1.6665624999999995-24.38Q-2.6965625000000006-23.41 -2.6965625000000006-22.78L-2.6965625000000006-22.78Q-2.6965625000000006-22.05 -1.8765625000000004-22.05L-1.8765625000000004-22.05Q-0.8465624999999992-23.84  0.9634374999999995-24.89L 0.9634374999999995-24.89Q 3.0734375000000007-26.09  5.903437499999999-26.09L 5.903437499999999-26.09Q 8.0634375-26.09  9.693437500000002-25.17Q 11.3234375-24.26  12.1134375-23.06L 12.1134375-23.06Q 13.2234375-24.56  14.9834375-25.32Q 16.7534375-26.09  18.6834375-26.09L 18.6834375-26.09Q 22.9234375-26.09  25.263437500000002-23.46L 25.263437500000002-23.46Q 27.5634375-20.84  27.5634375-16.27L 27.5634375-16.27ZM 43.5421875 0.73L 43.5421875 0.73Q 37.0521875 0.73  33.3021875-2.88L 33.3021875-2.88Q 29.4621875-6.52  29.4621875-12.83Q 29.4621875-19.15  33.4221875-22.85L 33.4221875-22.85Q 37.0821875-26.3  42.6821875-26.3Q 48.2821875-26.3  51.6721875-23.21Q 55.0521875-20.13  55.0521875-15.63L 55.0521875-15.63Q 55.0521875-11.63  52.262187499999996-9.59L 52.262187499999996-9.59Q 49.6921875-7.66  45.232187499999995-7.66L 45.232187499999995-7.66Q 41.9021875-7.66  39.6121875-9.05L 39.6121875-9.05Q 39.4221875-8.91  39.4221875-8.53L 39.4221875-8.53Q 39.4221875-7.83  41.2721875-7.24L 41.2721875-7.24Q 43.1221875-6.61  45.482187499999995-6.61Q 47.8321875-6.61  49.7721875-7.21Q 51.7021875-7.8  52.872187499999995-8.63L 52.872187499999995-8.63Q 53.4421875-8.13  53.7821875-6.81Q 54.122187499999995-5.48  54.122187499999995-4.39Q 54.122187499999995-3.3  53.9021875-2.46L 53.9021875-2.46Q 52.0821875-0.91  50.1521875-0.26L 50.1521875-0.26Q 47.4421875 0.73  43.5421875 0.73ZM 43.2421875-15.14L 43.2421875-15.14Q 44.4121875-15.14  44.4121875-16.03L 44.4121875-16.03Q 44.4121875-16.88  43.1721875-16.88Q 41.9321875-16.88  41.7421875-15.54L 41.7421875-15.54Q 42.4021875-15.14  43.2421875-15.14ZM 58.5246875-8.04L 58.5246875-14.81L 59.9746875-14.81Q 61.1446875-14.81  61.1446875-15.59L 61.1446875-15.59Q 61.1446875-15.68  61.1046875-15.87L 61.1046875-15.87L 55.8546875-15.87Q 55.3346875-17.51  55.3346875-19.54Q 55.3346875-21.56  55.6446875-22.83L 55.6446875-22.83Q 56.9746875-23.67  59.324687499999996-25.41L 59.324687499999996-25.41Q 59.9746875-27  61.034687500000004-30.47L 61.034687500000004-30.47Q 61.1746875-30.94  61.3546875-31.38L 61.3546875-31.38Q 63.1846875-31.85  65.5346875-31.85Q 67.8746875-31.85  70.1446875-31.36L 70.1446875-31.36L 70.1446875-25.62L 74.2046875-25.62Q 75.5646875-23.55  75.5646875-20.77L 75.5646875-20.77Q 75.5646875-19.5  75.2146875-18.16Q 74.8546875-16.83  74.2046875-15.89L 74.2046875-15.89L 70.8546875-15.89L 70.8546875-12.35Q 70.8546875-9.35  73.3546875-9.35L 73.3546875-9.35L 74.3646875-9.35Q 74.8546875-7.57  74.8546875-6.26L 74.8546875-6.26Q 74.8546875-3.02  72.8346875-1.3Q 70.8046875 0.42  66.9446875 0.42Q 63.0946875 0.42  60.8046875-1.72Q 58.5246875-3.87  58.5246875-8.04L 58.5246875-8.04ZM 88.64375-21.09L 88.64375-21.09L 88.64375-11.81Q 88.64375-8.32  90.32375-7.27L 90.32375-7.27Q 90.35375-7.15  90.35375-6.82L 90.35375-6.82L 90.35375-6.4Q 90.35375-2.95  88.47375-1.22L 88.47375-1.22Q 86.74375 0.42  83.84375 0.42Q 80.95375 0.42  79.07375-1.22L 79.07375-1.22Q 76.71375-3.3  76.71375-7.31L 76.71375-7.31L 76.71375-22.55Q 77.13375-22.85  77.62375-23.04Q 78.11375-23.23  78.65375-23.51L 78.65375-23.51Q 77.64375-24.02  76.82375-25.3Q 76.00375-26.58  76.00375-28.29L 76.00375-28.29Q 76.00375-31.24  77.95375-33.12Q 79.89375-34.99  82.72375-34.99Q 85.54375-34.99  87.45375-33.08Q 89.36375-31.17  89.36375-28.29L 89.36375-28.29Q 89.36375-25.97  87.91375-24.22Q 86.46375-22.48  84.37375-22.03L 84.37375-22.03Q 84.37375-21.14  85.05375000000001-21.14L 85.05375000000001-21.14Q 86.25375-21.14  87.49375-22.08L 87.49375-22.08Q 88.43375-21.35  88.64375-21.09ZM 103.9640625 0.73L 103.9640625 0.73Q 97.8740625 0.73  94.2540625-3.04Q 90.6340625-6.8  90.6340625-13.13Q 90.6340625-19.45  94.7340625-23.13L 94.7340625-23.13Q 98.3940625-26.41  103.87406250000001-26.41L 103.87406250000001-26.41Q 108.7540625-26.41  111.9640625-24.01Q 115.1740625-21.61  115.1740625-17.48L 115.1740625-17.48Q 115.1740625-14.63  113.4040625-12.83Q 111.6340625-11.04  108.7540625-11.04L 108.7540625-11.04Q 106.4040625-11.04  104.8440625-12.29Q 103.2940625-13.55  103.0040625-15.56L 103.0040625-15.56Q 101.9740625-15.56  101.9740625-14.81L 101.9740625-14.81Q 101.9740625-13.1  103.6640625-11.67L 103.6640625-11.67Q 105.6140625-9.98  108.5040625-9.98Q 111.3940625-9.98  113.2940625-11.23L 113.2940625-11.23Q 114.4640625-9.42  114.4640625-6.84L 114.4640625-6.84Q 114.4640625-3.84  111.8940625-1.71L 111.8940625-1.71Q 108.9340625 0.73  103.9640625 0.73Z" />
</svg>